<?xml version="1.0" standalone="yes"?>
<svg xmlns="http://www.w3.org/2000/svg" width="512" height="512">
<path style="fill:#020101; stroke:none;" d="M0 0L0 512L512 512L512 0L0 0z"/>
<path style="fill:#a9b0b6; stroke:none;" d="M56 32L56 145C56 160.18 52.1417 181.311 56.3179 195.867C58.6139 203.87 77.8013 204.721 83.9414 209.51C91.1076 215.099 90.6387 231.586 91 240L241 240L267 239.79L290 235.09L308 241C311.925 234.111 317.226 228.639 324 224.467C327.301 222.434 332.53 221.284 335.062 218.301C339.478 213.101 339.42 204.627 344.213 199.001C351.654 190.266 358.39 191.342 367.715 187.397C371.649 185.733 374.246 181.508 378 179.367C387.552 173.92 399.097 177.565 406.907 184.468C415.626 192.175 411.754 199.852 415.603 208.79C417.434 213.041 423.439 215.164 426.2 219.015C433.08 228.609 427.065 234.862 440 239L440 32L56 32z"/>
<path style="fill:#696f71; stroke:none;" d="M236 48L236 49L241 49L236 48z"/>
<path style="fill:#020101; stroke:none;" d="M241 48.4252C209.492 52.714 181.977 71.6992 172.029 103C155.656 154.512 197.504 214.471 254 207.715C286.186 203.865 314.661 184.02 324.279 152C339.787 100.366 297.492 40.7354 241 48.4252z"/>
<path style="fill:#696f71; stroke:none;" d="M255 48L255 49L260 49L255 48M231 49L231 50L234 50L231 49M262 49L262 50L265 50L262 49M227.667 50.3333L228.333 50.6667L227.667 50.3333M267.667 50.3333L268.333 50.6667L267.667 50.3333M223.667 51.3333L224.333 51.6667L223.667 51.3333M271 51L272 52L271 51M221 52L222 53L221 52M274 52L275 53L274 52M218 53L219 54L218 53M277 53L278 54L277 53M216 54L217 55L216 54M279 54L280 55L279 54M213.667 55.3333L214.333 55.6667L213.667 55.3333M281.667 55.3333L282.333 55.6667L281.667 55.3333M211 56L212 57L211 56M283.667 56.3333L284.333 56.6667L283.667 56.3333M210 57L211 58L210 57M285.667 57.3333L286.333 57.6667L285.667 57.3333M208 58L209 59L208 58M287 58L288 59L287 58M206 59L207 60L206 59M289 59L290 60L289 59M204 60L205 61L204 60M291 60L292 61L291 60M203 61L204 62L203 61M292 61L293 62L292 61M201 62L202 63L201 62M200 63L201 64L200 63M295 63L296 64L295 63M199 64L200 65L199 64M238 64L238 65L241 65L238 64z"/>
<path style="fill:#a9b0b6; stroke:none;" d="M241 64L241 65L245 65L241 64z"/>
<path style="fill:#fddb52; stroke:none;" d="M245 64.4282C232.237 65.9572 220.536 68.9237 210 76.7608C176.54 101.649 176.453 152.879 209 178.482C223.012 189.505 240.681 192.897 258 190.83C323.399 183.025 328.392 88.7739 269 67.865C261.762 65.3168 252.667 63.5097 245 64.4282z"/>
<path style="fill:#a9b0b6; stroke:none;" d="M251 64L251 65L255 65L251 64z"/>
<path style="fill:#696f71; stroke:none;" d="M255 64L255 65L258 65L255 64M296 64L297 65L296 64M233.667 65.3333L234.333 65.6667L233.667 65.3333z"/>
<path style="fill:#a9b0b6; stroke:none;" d="M235 65L236 66L235 65M260 65L261 66L260 65z"/>
<path style="fill:#696f71; stroke:none;" d="M261.667 65.3333L262.333 65.6667L261.667 65.3333M196 66L197 67L196 66M229.667 66.3333L230.333 66.6667L229.667 66.3333z"/>
<path style="fill:#a9b0b6; stroke:none;" d="M231 66L232 67L231 66M264 66L265 67L264 66z"/>
<path style="fill:#696f71; stroke:none;" d="M265.667 66.3333L266.333 66.6667L265.667 66.3333M299 66L300 67L299 66M195 67L196 68L195 67M226 67L227 68L226 67z"/>
<path style="fill:#a9b0b6; stroke:none;" d="M227 67L228 68L227 67z"/>
<path style="fill:#696f71; stroke:none;" d="M268.667 67.3333L269.333 67.6667L268.667 67.3333M300 67L301 68L300 67M194 68L195 69L194 68M224 68L225 69L224 68z"/>
<path style="fill:#a9b0b6; stroke:none;" d="M225 68L226 69L225 68M270 68L271 69L270 68z"/>
<path style="fill:#696f71; stroke:none;" d="M271 68L272 69L271 68M301 68L302 69L301 68M193 69L194 70L193 69z"/>
<path style="fill:#a9b0b6; stroke:none;" d="M222 69L223 70L222 69M273 69L274 70L273 69z"/>
<path style="fill:#696f71; stroke:none;" d="M302 69L303 70L302 69M192 70L193 71L192 70M219 70L220 71L219 70z"/>
<path style="fill:#a9b0b6; stroke:none;" d="M220 70L221 71L220 70M275 70L276 71L275 70z"/>
<path style="fill:#696f71; stroke:none;" d="M276 70L277 71L276 70M303 70L304 71L303 70M191 71L192 72L191 71M217 71L218 72L217 71z"/>
<path style="fill:#a9b0b6; stroke:none;" d="M218 71L219 72L218 71M277 71L278 72L277 71z"/>
<path style="fill:#696f71; stroke:none;" d="M304 71L305 72L304 71M190 72L191 73L190 72z"/>
<path style="fill:#a9b0b6; stroke:none;" d="M216 72L217 73L216 72M279 72L280 73L279 72z"/>
<path style="fill:#696f71; stroke:none;" d="M305 72L306 73L305 72M189 73L190 74L189 73M214 73L215 74L214 73M281 73L282 74L281 73M306 73L307 74L306 73M188 74L189 75L188 74z"/>
<path style="fill:#a9b0b6; stroke:none;" d="M213 74L214 75L213 74M282 74L283 75L282 74z"/>
<path style="fill:#696f71; stroke:none;" d="M283 74L284 75L283 74M307 74L308 75L307 74M187 75L188 76L187 75M211 75L212 76L211 75M284 75L285 76L284 75M308 75L309 76L308 75M186 76L187 77L186 76z"/>
<path style="fill:#a9b0b6; stroke:none;" d="M210 76L211 77L210 76M285 76L286 77L285 76z"/>
<path style="fill:#696f71; stroke:none;" d="M309 76L310 77L309 76M208 77L209 78L208 77M287 77L288 78L287 77M207 78L208 79L207 78M288 78L289 79L288 78M184 79L185 80L184 79z"/>
<path style="fill:#a9b0b6; stroke:none;" d="M206 79L207 80L206 79M289 79L290 80L289 79z"/>
<path style="fill:#696f71; stroke:none;" d="M311 79L312 80L311 79M183 80L184 81L183 80z"/>
<path style="fill:#a9b0b6; stroke:none;" d="M205 80L206 81L205 80M290 80L291 81L290 80z"/>
<path style="fill:#696f71; stroke:none;" d="M312 80L313 81L312 80z"/>
<path style="fill:#a9b0b6; stroke:none;" d="M204 81L205 82L204 81M291 81L292 82L291 81M203 82L204 83L203 82M292 82L293 83L292 82z"/>
<path style="fill:#696f71; stroke:none;" d="M181 83L182 84L181 83z"/>
<path style="fill:#a9b0b6; stroke:none;" d="M202 83L203 84L202 83M293 83L294 84L293 83z"/>
<path style="fill:#696f71; stroke:none;" d="M314 83L315 84L314 83M180 84L181 85L180 84z"/>
<path style="fill:#a9b0b6; stroke:none;" d="M201 84L202 85L201 84M294 84L295 85L294 84z"/>
<path style="fill:#696f71; stroke:none;" d="M315 84L316 85L315 84z"/>
<path style="fill:#a9b0b6; stroke:none;" d="M200 85L201 86L200 85M295 85L296 86L295 85z"/>
<path style="fill:#696f71; stroke:none;" d="M179 86L180 87L179 86z"/>
<path style="fill:#a9b0b6; stroke:none;" d="M199 86L200 87L199 86M296 86L297 87L296 86z"/>
<path style="fill:#696f71; stroke:none;" d="M316 86L317 87L316 86M198 87L199 88L198 87M297 87L298 88L297 87M178 88L179 89L178 88M197 88L198 89L197 88z"/>
<path style="fill:#a9b0b6; stroke:none;" d="M220 88L221 89L220 88z"/>
<path style="fill:#696f71; stroke:none;" d="M221 88L222 89L221 88z"/>
<path style="fill:#020101; stroke:none;" d="M222.015 88.7855C214.784 91.2094 216 100.028 216 106C216 122.973 215.483 140.036 216.015 157C216.19 162.57 219.409 168.78 226 167.319C242.025 163.767 259.747 148.823 274 140.719C278.744 138.022 287.543 134.576 287.543 128C287.543 121.717 279.549 118.447 275 115.85L238 94.7191C233.722 92.2872 227.261 87.0274 222.015 88.7855z"/>
<path style="fill:#696f71; stroke:none;" d="M226 88L227 89L226 88z"/>
<path style="fill:#a9b0b6; stroke:none;" d="M227 88L228 89L227 88z"/>
<path style="fill:#696f71; stroke:none;" d="M298 88L299 89L298 88M317 88L318 89L317 88M177.333 89.6667L177.667 90.3333L177.333 89.6667M219 89L220 90L219 89M228 89L229 90L228 89z"/>
<path style="fill:#a9b0b6; stroke:none;" d="M229 89L230 90L229 89z"/>
<path style="fill:#696f71; stroke:none;" d="M318.333 89.6667L318.667 90.3333L318.333 89.6667z"/>
<path style="fill:#a9b0b6; stroke:none;" d="M196 90L197 91L196 90z"/>
<path style="fill:#696f71; stroke:none;" d="M218 90L219 91L218 90M230 90L231 91L230 90z"/>
<path style="fill:#a9b0b6; stroke:none;" d="M299 90L300 91L299 90z"/>
<path style="fill:#696f71; stroke:none;" d="M176 91L177 92L176 91M195 91L196 92L195 91M217 91L218 92L217 91z"/>
<path style="fill:#a9b0b6; stroke:none;" d="M232 91L233 92L232 91z"/>
<path style="fill:#696f71; stroke:none;" d="M300 91L301 92L300 91M319.333 91.6667L319.667 92.3333L319.333 91.6667z"/>
<path style="fill:#a9b0b6; stroke:none;" d="M216 92L217 93L216 92M234 92L235 93L234 92z"/>
<path style="fill:#696f71; stroke:none;" d="M175.333 93.6667L175.667 94.3333L175.333 93.6667z"/>
<path style="fill:#a9b0b6; stroke:none;" d="M194 93L195 94L194 93z"/>
<path style="fill:#696f71; stroke:none;" d="M216 93L217 94L216 93M235 93L236 94L235 93z"/>
<path style="fill:#a9b0b6; stroke:none;" d="M236 93L237 94L236 93M301 93L302 94L301 93z"/>
<path style="fill:#696f71; stroke:none;" d="M320.333 93.6667L320.667 94.3333L320.333 93.6667M193 94L194 95L193 94M237 94L238 95L237 94M302 94L303 95L302 94z"/>
<path style="fill:#a9b0b6; stroke:none;" d="M239 95L240 96L239 95z"/>
<path style="fill:#696f71; stroke:none;" d="M174 96L175 97L174 96z"/>
<path style="fill:#a9b0b6; stroke:none;" d="M192 96L193 97L192 96M241 96L242 97L241 96M303 96L304 97L303 96z"/>
<path style="fill:#696f71; stroke:none;" d="M321 96L322 97L321 96M191 97L192 98L191 97M242 97L243 98L242 97z"/>
<path style="fill:#a9b0b6; stroke:none;" d="M243 97L244 98L243 97z"/>
<path style="fill:#696f71; stroke:none;" d="M173 98L174 99L173 98z"/>
<path style="fill:#a9b0b6; stroke:none;" d="M191 98L192 99L191 98z"/>
<path style="fill:#696f71; stroke:none;" d="M244 98L245 99L244 98z"/>
<path style="fill:#a9b0b6; stroke:none;" d="M304 98L305 99L304 98z"/>
<path style="fill:#696f71; stroke:none;" d="M322 98L323 99L322 98M190 99L191 100L190 99z"/>
<path style="fill:#a9b0b6; stroke:none;" d="M246 99L247 100L246 99z"/>
<path style="fill:#696f71; stroke:none;" d="M305 99L306 100L305 99z"/>
<path style="fill:#a9b0b6; stroke:none;" d="M190 100L191 101L190 100M248 100L249 101L248 100M305 100L306 101L305 100z"/>
<path style="fill:#696f71; stroke:none;" d="M172 101L173 102L172 101M249 101L250 102L249 101z"/>
<path style="fill:#a9b0b6; stroke:none;" d="M250 101L251 102L250 101z"/>
<path style="fill:#696f71; stroke:none;" d="M323 101L324 102L323 101z"/>
<path style="fill:#a9b0b6; stroke:none;" d="M189 102L190 103L189 102z"/>
<path style="fill:#696f71; stroke:none;" d="M251 102L252 103L251 102z"/>
<path style="fill:#a9b0b6; stroke:none;" d="M306 102L307 103L306 102z"/>
<path style="fill:#696f71; stroke:none;" d="M171.333 103.667L171.667 104.333L171.333 103.667z"/>
<path style="fill:#a9b0b6; stroke:none;" d="M253 103L254 104L253 103z"/>
<path style="fill:#696f71; stroke:none;" d="M188 104L189 105L188 104z"/>
<path style="fill:#a9b0b6; stroke:none;" d="M255 104L256 105L255 104z"/>
<path style="fill:#696f71; stroke:none;" d="M307 104L308 105L307 104M324 104L325 105L324 104z"/>
<path style="fill:#a9b0b6; stroke:none;" d="M188 105L189 106L188 105z"/>
<path style="fill:#696f71; stroke:none;" d="M256 105L257 106L256 105z"/>
<path style="fill:#a9b0b6; stroke:none;" d="M257 105L258 106L257 105M307 105L308 106L307 105z"/>
<path style="fill:#696f71; stroke:none;" d="M187 106L188 107L187 106M258 106L259 107L258 106M308 106L309 107L308 106M170.333 107.667L170.667 108.333L170.333 107.667z"/>
<path style="fill:#a9b0b6; stroke:none;" d="M187 107L188 108L187 107M260 107L261 108L260 107M308 107L309 108L308 107z"/>
<path style="fill:#696f71; stroke:none;" d="M325.333 107.667L325.667 108.333L325.333 107.667z"/>
<path style="fill:#a9b0b6; stroke:none;" d="M262 108L263 109L262 108z"/>
<path style="fill:#696f71; stroke:none;" d="M186.333 109.667L186.667 110.333L186.333 109.667M263 109L264 110L263 109z"/>
<path style="fill:#a9b0b6; stroke:none;" d="M264 109L265 110L264 109z"/>
<path style="fill:#e4403c; stroke:none;" d="M232 110L232 146L263 129L263 127L232 110z"/>
<path style="fill:#696f71; stroke:none;" d="M265 110L266 111L265 110M309 110L310 111L309 110M169 111L169 114L170 114L169 111z"/>
<path style="fill:#a9b0b6; stroke:none;" d="M186 111L187 112L186 111M267 111L268 112L267 111M309 111L310 112L309 111z"/>
<path style="fill:#696f71; stroke:none;" d="M326 111L326 114L327 114L326 111z"/>
<path style="fill:#a9b0b6; stroke:none;" d="M269 112L270 113L269 112z"/>
<path style="fill:#696f71; stroke:none;" d="M185.333 113.667L185.667 114.333L185.333 113.667M270 113L271 114L270 113z"/>
<path style="fill:#a9b0b6; stroke:none;" d="M271 113L272 114L271 113z"/>
<path style="fill:#696f71; stroke:none;" d="M310.333 113.667L310.667 114.333L310.333 113.667M272 114L273 115L272 114z"/>
<path style="fill:#a9b0b6; stroke:none;" d="M185 115L186 116L185 115M274 115L275 116L274 115M310 115L311 116L310 115z"/>
<path style="fill:#696f71; stroke:none;" d="M168 116L168 121L169 121L168 116z"/>
<path style="fill:#a9b0b6; stroke:none;" d="M276 116L277 117L276 116z"/>
<path style="fill:#696f71; stroke:none;" d="M277 117L278 118L277 117z"/>
<path style="fill:#a9b0b6; stroke:none;" d="M278 117L279 118L278 117z"/>
<path style="fill:#696f71; stroke:none;" d="M327 117L327 122L328 122L327 117M279 118L280 119L279 118M311 118L311 121L312 121L311 118M184.333 119.667L184.667 120.333L184.333 119.667z"/>
<path style="fill:#a9b0b6; stroke:none;" d="M281 119L282 120L281 119M283 120L284 121L283 120M184 121L184 125L185 125L184 121z"/>
<path style="fill:#696f71; stroke:none;" d="M284 121L285 122L284 121z"/>
<path style="fill:#a9b0b6; stroke:none;" d="M311 121L311 125L312 125L311 121z"/>
<path style="fill:#696f71; stroke:none;" d="M285 122L286 123L285 122M286 123L287 124L286 123z"/>
<path style="fill:#a9b0b6; stroke:none;" d="M287 124L288 125L287 124z"/>
<path style="fill:#696f71; stroke:none;" d="M287 125L288 126L287 125z"/>
<path style="fill:#a9b0b6; stroke:none;" d="M184 130L184 134L185 134L184 130z"/>
<path style="fill:#696f71; stroke:none;" d="M287 130L288 131L287 130z"/>
<path style="fill:#a9b0b6; stroke:none;" d="M287 131L288 132L287 131M311 131L311 135L312 135L311 131z"/>
<path style="fill:#696f71; stroke:none;" d="M286 132L287 133L286 132M285 133L286 134L285 133M184 134L184 137L185 137L184 134M284 134L285 135L284 134M327 134L327 139L328 139L327 134M168 135L168 140L169 140L168 135z"/>
<path style="fill:#a9b0b6; stroke:none;" d="M283 135L284 136L283 135z"/>
<path style="fill:#696f71; stroke:none;" d="M311 135L311 138L312 138L311 135z"/>
<path style="fill:#a9b0b6; stroke:none;" d="M281 136L282 137L281 136z"/>
<path style="fill:#696f71; stroke:none;" d="M279 137L280 138L279 137M277 138L278 139L277 138z"/>
<path style="fill:#a9b0b6; stroke:none;" d="M278 138L279 139L278 138M276 139L277 140L276 139M185 140L186 141L185 140M274 140L275 141L274 140M310 140L311 141L310 140z"/>
<path style="fill:#696f71; stroke:none;" d="M185.333 141.667L185.667 142.333L185.333 141.667M272 141L273 142L272 141M310.333 141.667L310.667 142.333L310.333 141.667M169 142L169 145L170 145L169 142M270 142L271 143L270 142z"/>
<path style="fill:#a9b0b6; stroke:none;" d="M271 142L272 143L271 142z"/>
<path style="fill:#696f71; stroke:none;" d="M326 142L326 145L327 145L326 142z"/>
<path style="fill:#a9b0b6; stroke:none;" d="M269 143L270 144L269 143M186 144L187 145L186 144M267 144L268 145L267 144M309 144L310 145L309 144z"/>
<path style="fill:#696f71; stroke:none;" d="M186 145L187 146L186 145M265 145L266 146L265 145M309 145L310 146L309 145M263 146L264 147L263 146z"/>
<path style="fill:#a9b0b6; stroke:none;" d="M264 146L265 147L264 146z"/>
<path style="fill:#696f71; stroke:none;" d="M170.333 147.667L170.667 148.333L170.333 147.667z"/>
<path style="fill:#a9b0b6; stroke:none;" d="M262 147L263 148L262 147M308 147L309 148L308 147z"/>
<path style="fill:#696f71; stroke:none;" d="M325.333 147.667L325.667 148.333L325.333 147.667M187 148L188 149L187 148z"/>
<path style="fill:#a9b0b6; stroke:none;" d="M260 148L261 149L260 148z"/>
<path style="fill:#696f71; stroke:none;" d="M308.333 148.667L308.667 149.333L308.333 148.667M258 149L259 150L258 149z"/>
<path style="fill:#a9b0b6; stroke:none;" d="M188 150L189 151L188 150z"/>
<path style="fill:#696f71; stroke:none;" d="M256 150L257 151L256 150z"/>
<path style="fill:#a9b0b6; stroke:none;" d="M257 150L258 151L257 150M307 150L308 151L307 150z"/>
<path style="fill:#696f71; stroke:none;" d="M171.333 151.667L171.667 152.333L171.333 151.667M188 151L189 152L188 151z"/>
<path style="fill:#a9b0b6; stroke:none;" d="M255 151L256 152L255 151z"/>
<path style="fill:#696f71; stroke:none;" d="M307 151L308 152L307 151M324.333 151.667L324.667 152.333L324.333 151.667z"/>
<path style="fill:#a9b0b6; stroke:none;" d="M253 152L254 153L253 152M189 153L190 154L189 153z"/>
<path style="fill:#696f71; stroke:none;" d="M251 153L252 154L251 153z"/>
<path style="fill:#a9b0b6; stroke:none;" d="M306 153L307 154L306 153z"/>
<path style="fill:#696f71; stroke:none;" d="M172.333 154.667L172.667 155.333L172.333 154.667M249 154L250 155L249 154z"/>
<path style="fill:#a9b0b6; stroke:none;" d="M250 154L251 155L250 154z"/>
<path style="fill:#696f71; stroke:none;" d="M323 154L324 155L323 154z"/>
<path style="fill:#a9b0b6; stroke:none;" d="M190 155L191 156L190 155M248 155L249 156L248 155M305 155L306 156L305 155z"/>
<path style="fill:#696f71; stroke:none;" d="M190 156L191 157L190 156z"/>
<path style="fill:#a9b0b6; stroke:none;" d="M246 156L247 157L246 156z"/>
<path style="fill:#696f71; stroke:none;" d="M305 156L306 157L305 156M173 157L174 158L173 157z"/>
<path style="fill:#a9b0b6; stroke:none;" d="M191 157L192 158L191 157z"/>
<path style="fill:#696f71; stroke:none;" d="M244 157L245 158L244 157z"/>
<path style="fill:#a9b0b6; stroke:none;" d="M304 157L305 158L304 157z"/>
<path style="fill:#696f71; stroke:none;" d="M322 157L323 158L322 157M242 158L243 159L242 158z"/>
<path style="fill:#a9b0b6; stroke:none;" d="M243 158L244 159L243 158z"/>
<path style="fill:#696f71; stroke:none;" d="M304 158L305 159L304 158M174 159L175 160L174 159z"/>
<path style="fill:#a9b0b6; stroke:none;" d="M192 159L193 160L192 159M241 159L242 160L241 159M303 159L304 160L303 159z"/>
<path style="fill:#696f71; stroke:none;" d="M321 159L322 160L321 159z"/>
<path style="fill:#a9b0b6; stroke:none;" d="M239 160L240 161L239 160z"/>
<path style="fill:#696f71; stroke:none;" d="M175.333 161.667L175.667 162.333L175.333 161.667M193 161L194 162L193 161M237 161L238 162L237 161M302 161L303 162L302 161M320.333 161.667L320.667 162.333L320.333 161.667z"/>
<path style="fill:#a9b0b6; stroke:none;" d="M194 162L195 163L194 162z"/>
<path style="fill:#696f71; stroke:none;" d="M216 162L217 163L216 162M235 162L236 163L235 162z"/>
<path style="fill:#a9b0b6; stroke:none;" d="M236 162L237 163L236 162M301 162L302 163L301 162z"/>
<path style="fill:#696f71; stroke:none;" d="M176.333 163.667L176.667 164.333L176.333 163.667M194 163L195 164L194 163z"/>
<path style="fill:#a9b0b6; stroke:none;" d="M216 163L217 164L216 163M234 163L235 164L234 163z"/>
<path style="fill:#696f71; stroke:none;" d="M195 164L196 165L195 164M217 164L218 165L217 164z"/>
<path style="fill:#a9b0b6; stroke:none;" d="M232 164L233 165L232 164z"/>
<path style="fill:#696f71; stroke:none;" d="M300 164L301 165L300 164M319 164L320 165L319 164M177.333 165.667L177.667 166.333L177.333 165.667z"/>
<path style="fill:#a9b0b6; stroke:none;" d="M196 165L197 166L196 165z"/>
<path style="fill:#696f71; stroke:none;" d="M218 165L219 166L218 165M230 165L231 166L230 165z"/>
<path style="fill:#a9b0b6; stroke:none;" d="M299 165L300 166L299 165z"/>
<path style="fill:#696f71; stroke:none;" d="M318 165L319 166L318 165M219 166L220 167L219 166M228 166L229 167L228 166z"/>
<path style="fill:#a9b0b6; stroke:none;" d="M229 166L230 167L229 166z"/>
<path style="fill:#696f71; stroke:none;" d="M178 167L179 168L178 167M197 167L198 168L197 167z"/>
<path style="fill:#a9b0b6; stroke:none;" d="M220 167L221 168L220 167z"/>
<path style="fill:#696f71; stroke:none;" d="M221 167L222 168L221 167M226 167L227 168L226 167z"/>
<path style="fill:#a9b0b6; stroke:none;" d="M227 167L228 168L227 167z"/>
<path style="fill:#696f71; stroke:none;" d="M298 167L299 168L298 167M317 167L318 168L317 167M198 168L199 169L198 168M297 168L298 169L297 168M179 169L180 170L179 169z"/>
<path style="fill:#a9b0b6; stroke:none;" d="M199 169L200 170L199 169M296 169L297 170L296 169z"/>
<path style="fill:#696f71; stroke:none;" d="M316 169L317 170L316 169z"/>
<path style="fill:#a9b0b6; stroke:none;" d="M200 170L201 171L200 170M295 170L296 171L295 170z"/>
<path style="fill:#696f71; stroke:none;" d="M180 171L181 172L180 171z"/>
<path style="fill:#a9b0b6; stroke:none;" d="M201 171L202 172L201 171M294 171L295 172L294 171z"/>
<path style="fill:#696f71; stroke:none;" d="M315 171L316 172L315 171M181 172L182 173L181 172z"/>
<path style="fill:#a9b0b6; stroke:none;" d="M202 172L203 173L202 172M293 172L294 173L293 172z"/>
<path style="fill:#696f71; stroke:none;" d="M314 172L315 173L314 172z"/>
<path style="fill:#a9b0b6; stroke:none;" d="M203 173L204 174L203 173M292 173L293 174L292 173M204 174L205 175L204 174M291 174L292 175L291 174z"/>
<path style="fill:#696f71; stroke:none;" d="M313 174L314 175L313 174M183 175L184 176L183 175z"/>
<path style="fill:#a9b0b6; stroke:none;" d="M205 175L206 176L205 175M290 175L291 176L290 175z"/>
<path style="fill:#696f71; stroke:none;" d="M312 175L313 176L312 175M184 176L185 177L184 176z"/>
<path style="fill:#a9b0b6; stroke:none;" d="M206 176L207 177L206 176M289 176L290 177L289 176z"/>
<path style="fill:#696f71; stroke:none;" d="M311 176L312 177L311 176M386 176L386 177L390 177L386 176M207 177L208 178L207 177M288 177L289 178L288 177M381.667 177.333L382.333 177.667L381.667 177.333M393.667 177.333L394.333 177.667L393.667 177.333M208 178L209 179L208 178M287 178L288 179L287 178M379 178L380 179L379 178M396.667 178.333L397.333 178.667L396.667 178.333M186 179L187 180L186 179z"/>
<path style="fill:#a9b0b6; stroke:none;" d="M210 179L211 180L210 179M285 179L286 180L285 179z"/>
<path style="fill:#696f71; stroke:none;" d="M309 179L310 180L309 179M377 179L378 180L377 179M399 179L400 180L399 179M187 180L188 181L187 180M211 180L212 181L211 180M284 180L285 181L284 180M308 180L309 181L308 180M375 180L376 181L375 180M401 180L402 181L401 180M188 181L189 182L188 181z"/>
<path style="fill:#a9b0b6; stroke:none;" d="M213 181L214 182L213 181M282 181L283 182L282 181z"/>
<path style="fill:#696f71; stroke:none;" d="M307 181L308 182L307 181M374 181L375 182L374 181M403 181L404 182L403 181M189 182L190 183L189 182M214 182L215 183L214 182M281 182L282 183L281 182M306 182L307 183L306 182M404 182L405 183L404 182M190 183L191 184L190 183z"/>
<path style="fill:#a9b0b6; stroke:none;" d="M216 183L217 184L216 183M279 183L280 184L279 183z"/>
<path style="fill:#696f71; stroke:none;" d="M305 183L306 184L305 183M191 184L192 185L191 184z"/>
<path style="fill:#a9b0b6; stroke:none;" d="M218 184L219 185L218 184M277 184L278 185L277 184z"/>
<path style="fill:#696f71; stroke:none;" d="M278 184L279 185L278 184M304 184L305 185L304 184M371 184L372 185L371 184M407 184L408 185L407 184M192 185L193 186L192 185M219 185L220 186L219 185z"/>
<path style="fill:#a9b0b6; stroke:none;" d="M220 185L221 186L220 185M275 185L276 186L275 185z"/>
<path style="fill:#696f71; stroke:none;" d="M276 185L277 186L276 185M303 185L304 186L303 185M370 185L371 186L370 185M408 185L409 186L408 185M193 186L194 187L193 186z"/>
<path style="fill:#a9b0b6; stroke:none;" d="M222 186L223 187L222 186M273 186L274 187L273 186z"/>
<path style="fill:#696f71; stroke:none;" d="M302 186L303 187L302 186M369 186L370 187L369 186M409 186L410 187L409 186M194 187L195 188L194 187M224 187L225 188L224 187z"/>
<path style="fill:#a9b0b6; stroke:none;" d="M225 187L226 188L225 187M270 187L271 188L270 187z"/>
<path style="fill:#696f71; stroke:none;" d="M271 187L272 188L271 187M301 187L302 188L301 187M195 188L196 189L195 188M226 188L227 189L226 188z"/>
<path style="fill:#a9b0b6; stroke:none;" d="M227 188L228 189L227 188M267 188L268 189L267 188z"/>
<path style="fill:#696f71; stroke:none;" d="M268.667 188.333L269.333 188.667L268.667 188.333M300 188L301 189L300 188M360 188L360 189L368 189L360 188M410 188L411 189L410 188M196 189L197 190L196 189M230 189L231 190L230 189z"/>
<path style="fill:#a9b0b6; stroke:none;" d="M231 189L232 190L231 189M264 189L265 190L264 189z"/>
<path style="fill:#696f71; stroke:none;" d="M265 189L266 190L265 189M299 189L300 190L299 189M356.667 189.333L357.333 189.667L356.667 189.333M411 189L412 190L411 189M233.667 190.333L234.333 190.667L233.667 190.333z"/>
<path style="fill:#a9b0b6; stroke:none;" d="M235 190L236 191L235 190M260 190L261 191L260 190z"/>
<path style="fill:#696f71; stroke:none;" d="M261.667 190.333L262.333 190.667L261.667 190.333M354 190L355 191L354 190M199 191L200 192L199 191M238 191L238 192L241 192L238 191z"/>
<path style="fill:#a9b0b6; stroke:none;" d="M241 191L241 192L245 192L241 191M251 191L251 192L255 192L251 191z"/>
<path style="fill:#696f71; stroke:none;" d="M255 191L255 192L258 192L255 191M296 191L297 192L296 191M352 191L353 192L352 191M412 191L413 192L412 191M200 192L201 193L200 192M295 192L296 193L295 192M350 192L351 193L350 192M349 193L350 194L349 193z"/>
<path style="fill:#a9b0b6; stroke:none;" d="M385 193L386 194L385 193z"/>
<path style="fill:#fddb52; stroke:none;" d="M386.043 193.782C380.475 195.75 380.606 202.992 375.892 205.975C370.797 209.2 366.229 203.865 361.015 205.758C351.177 209.33 349.679 228.981 359.093 233.806C367.207 237.963 372.494 224.803 380.271 227.323C388.188 229.887 392.559 248.937 402 245.932C404.267 245.211 406.27 243.511 407.956 241.895C409.17 240.731 410.412 239.44 411.297 237.999C419.478 224.681 401.455 227.182 397.183 218.956C394.294 213.394 404.154 187.383 386.043 193.782z"/>
<path style="fill:#a9b0b6; stroke:none;" d="M390 193L391 194L390 193z"/>
<path style="fill:#696f71; stroke:none;" d="M391 193L392 194L391 193M413 193L414 194L413 193M203 194L204 195L203 194M292 194L293 195L292 194M393 194L394 195L393 194M204 195L205 196L204 195M291 195L292 196L291 195M395 195L396 196L395 195M206 196L207 197L206 196M289 196L290 197L289 196M396 196L397 197L396 196M414 196L414 199L415 199L414 196M208 197L209 198L208 197M287 197L288 198L287 197M381 197L382 198L381 197M397 197L398 198L397 197M56 198L57 199L56 198M209.667 198.333L210.333 198.667L209.667 198.333M285 198L286 199L285 198M344 198L345 199L344 198M58.6667 199.333L59.3333 199.667L58.6667 199.333M211.667 199.333L212.333 199.667L211.667 199.333M284 199L285 200L284 199M343 199L344 200L343 199M380 199L381 200L380 199M398 199L399 200L398 199M61 200L62 201L61 200M213.667 200.333L214.333 200.667L213.667 200.333M281.667 200.333L282.333 200.667L281.667 200.333M342 200L343 201L342 200z"/>
<path style="fill:#a9b0b6; stroke:none;" d="M398 200L399 201L398 200z"/>
<path style="fill:#696f71; stroke:none;" d="M64 201L65 202L64 201M216 201L217 202L216 201M279 201L280 202L279 201M66.6667 202.333L67.3333 202.667L66.6667 202.333M218 202L219 203L218 202M277 202L278 203L277 202M341 202L342 203L341 202M379 202L380 203L379 202M69 203L70 204L69 203M221 203L222 204L221 203M274 203L275 204L274 203M72 204L73 205L72 204M223.667 204.333L224.333 204.667L223.667 204.333M271.667 204.333L272.333 204.667L271.667 204.333M340 204L341 205L340 204M362 204L362 205L366 205L362 204z"/>
<path style="fill:#a9b0b6; stroke:none;" d="M378 204L379 205L378 204z"/>
<path style="fill:#696f71; stroke:none;" d="M74.6667 205.333L75.3333 205.667L74.6667 205.333M227.667 205.333L228.333 205.667L227.667 205.333M267.667 205.333L268.333 205.667L267.667 205.333M360 205L361 206L360 205z"/>
<path style="fill:#a9b0b6; stroke:none;" d="M366 205L367 206L366 205M377 205L378 206L377 205M398 205L399 206L398 205z"/>
<path style="fill:#696f71; stroke:none;" d="M77 206L78 207L77 206M231 206L231 207L234 207L231 206M262 206L262 207L265 207L262 206M339 206L340 207L339 206M368 206L369 207L368 206M375 206L376 207L375 206M398.333 206.667L398.667 207.333L398.333 206.667M80 207L81 208L80 207M236 207L236 208L241 208L236 207M255 207L255 208L260 208L255 207M357 207L358 208L357 207z"/>
<path style="fill:#a9b0b6; stroke:none;" d="M370 207L371 208L370 207z"/>
<path style="fill:#696f71; stroke:none;" d="M371 207L371 208L374 208L371 207M414 207L414 210L415 210L414 207M82.6667 208.333L83.3333 208.667L82.6667 208.333M338.333 208.667L338.667 209.333L338.333 208.667M356 208L357 209L356 208M84 209L85 210L84 209z"/>
<path style="fill:#a9b0b6; stroke:none;" d="M397 209L398 210L397 209z"/>
<path style="fill:#696f71; stroke:none;" d="M355 210L356 211L355 210M397 210L398 211L397 210M415 210L416 211L415 210M86 211L87 212L86 211M337.333 211.667L337.667 212.333L337.333 211.667M417 211L418 212L417 211M87.3333 212.667L87.6667 213.333L87.3333 212.667M354 212L355 213L354 212z"/>
<path style="fill:#a9b0b6; stroke:none;" d="M396 212L397 213L396 212z"/>
<path style="fill:#696f71; stroke:none;" d="M419 212L420 213L419 212M396 213L397 214L396 213M353 214L354 215L353 214M422 214L423 215L422 214M336 215L336 219L337 219L336 215z"/>
<path style="fill:#a9b0b6; stroke:none;" d="M353 215L354 216L353 215z"/>
<path style="fill:#696f71; stroke:none;" d="M423 215L424 216L423 215z"/>
<path style="fill:#a9b0b6; stroke:none;" d="M56 216L56 240L74 240C73.9587 225.046 70.5651 219.976 56 216z"/>
<path style="fill:#696f71; stroke:none;" d="M58 216L59 217L58 216M424 216L425 217L424 216M60.6667 217.333L61.3333 217.667L60.6667 217.333M88 217L88 221L89 221L88 217M352.333 217.667L352.667 218.333L352.333 217.667M425 217L426 218L425 217M63 218L64 219L63 218M396 218L397 219L396 218M66 219L67 220L66 219M334 219L335 220L334 219z"/>
<path style="fill:#a9b0b6; stroke:none;" d="M352 219L352 223L353 223L352 219z"/>
<path style="fill:#696f71; stroke:none;" d="M68.6667 220.333L69.3333 220.667L68.6667 220.333M331.667 220.333L332.333 220.667L331.667 220.333M397 220L398 221L397 220M427 220L428 221L427 220M71 221L72 222L71 221M329 221L330 222L329 221M398 221L399 222L398 221M72.3333 222.667L72.6667 223.333L72.3333 222.667M327 222L328 223L327 222z"/>
<path style="fill:#a9b0b6; stroke:none;" d="M399 222L400 223L399 222z"/>
<path style="fill:#696f71; stroke:none;" d="M428.333 222.667L428.667 223.333L428.333 222.667M325 223L326 224L325 223M352.333 223.667L352.667 224.333L352.333 223.667z"/>
<path style="fill:#a9b0b6; stroke:none;" d="M401 223L402 224L401 223z"/>
<path style="fill:#696f71; stroke:none;" d="M402 223L403 224L402 223M323 224L324 225L323 224z"/>
<path style="fill:#a9b0b6; stroke:none;" d="M404 224L405 225L404 224z"/>
<path style="fill:#696f71; stroke:none;" d="M405.667 224.333L406.333 224.667L405.667 224.333M89 225L89 230L90 230L89 225z"/>
<path style="fill:#a9b0b6; stroke:none;" d="M408 225L409 226L408 225z"/>
<path style="fill:#696f71; stroke:none;" d="M409 225L410 226L409 225M429.333 225.667L429.667 226.333L429.333 225.667M320 226L321 227L320 226z"/>
<path style="fill:#a9b0b6; stroke:none;" d="M378 226L379 227L378 226z"/>
<path style="fill:#696f71; stroke:none;" d="M411 226L412 227L411 226M319 227L320 228L319 227M353 227L354 228L353 227z"/>
<path style="fill:#a9b0b6; stroke:none;" d="M374 227L375 228L374 227z"/>
<path style="fill:#696f71; stroke:none;" d="M375 227L376 228L375 227M381 227L382 228L381 227z"/>
<path style="fill:#a9b0b6; stroke:none;" d="M412 227L413 228L412 227z"/>
<path style="fill:#696f71; stroke:none;" d="M73 228L73 232L74 232L73 228M373 228L374 229L373 228z"/>
<path style="fill:#a9b0b6; stroke:none;" d="M383 228L384 229L383 228z"/>
<path style="fill:#696f71; stroke:none;" d="M413 228L414 229L413 228M354 229L355 230L354 229z"/>
<path style="fill:#a9b0b6; stroke:none;" d="M384 229L385 230L384 229M413 229L414 230L413 229z"/>
<path style="fill:#696f71; stroke:none;" d="M315 230L316 231L315 230z"/>
<path style="fill:#a9b0b6; stroke:none;" d="M355 230L356 231L355 230z"/>
<path style="fill:#696f71; stroke:none;" d="M314 231L315 232L314 231z"/>
<path style="fill:#a9b0b6; stroke:none;" d="M369 231L370 232L369 231z"/>
<path style="fill:#696f71; stroke:none;" d="M385 231L386 232L385 231M313 232L314 233L313 232M368 232L369 233L368 232M386 232L387 233L386 232z"/>
<path style="fill:#a9b0b6; stroke:none;" d="M366 233L367 234L366 233M387 233L388 234L387 233M413 233L414 234L413 233z"/>
<path style="fill:#696f71; stroke:none;" d="M90 234L90 238L91 238L90 234M359 234L360 235L359 234M364 234L365 235L364 234M413 234L414 235L413 234M280 235L280 236L284 236L280 235M290 235L290 236L294 236L290 235M311 235L312 236L311 235M337 235L338 236L337 235z"/>
<path style="fill:#a9b0b6; stroke:none;" d="M338 235L339 236L338 235z"/>
<path style="fill:#696f71; stroke:none;" d="M339 235L340 236L339 235M388 235L389 236L388 235M74 236L74 240L75 240L74 236M276.667 236.333L277.333 236.667L276.667 236.333M296.667 236.333L297.333 236.667L296.667 236.333M310 236L311 237L310 236M335 236L336 237L335 236z"/>
<path style="fill:#fddb52; stroke:none;" d="M262 277C270.925 273.29 279.249 270.172 289 273.221C293.63 274.668 300.319 281.693 305 280.698C315.189 278.532 320.113 270.882 332 272.174C339.14 272.949 345.677 280.823 352 280.823C355.477 280.823 359.042 276.892 362 275.327C367.296 272.525 373.061 271.655 379 272.09C386.672 272.653 393.322 280.823 400 280.823C404.5 280.823 409.648 275.098 414 273.549C426.579 269.072 436.564 274.565 447 281C446.993 270.054 443.997 259.082 433 254.214C418.831 247.941 411.252 264.692 397 262.812C387.32 261.535 384.872 251.221 376.91 248.241C369.863 245.602 361.64 253.17 353 249.08C347.938 246.684 342.325 236.133 336.907 236.542C321.07 237.736 324.32 259.477 312.985 263.214C306.346 265.402 300.542 255.759 295 253.367C278.902 246.421 262.718 261.287 262 277z"/>
<path style="fill:#696f71; stroke:none;" d="M389 236L390 237L389 236M412 236L413 237L412 236M430.667 236.333L431.333 236.667L430.667 236.333M274 237L275 238L274 237M299 237L300 238L299 237M333 237L334 238L333 237M340 237L341 238L340 237M434.667 237.333L435.333 237.667L434.667 237.333M271 238L272 239L271 238M301.667 238.333L302.333 238.667L301.667 238.333M331 238L332 239L331 238M341 238L342 239L341 238M411 238L412 239L411 238M437.667 238.333L438.333 238.667L437.667 238.333M269 239L270 240L269 239M304 239L305 240L304 239M308 239L309 240L308 239z"/>
<path style="fill:#a9b0b6; stroke:none;" d="M330 239L331 240L330 239z"/>
<path style="fill:#696f71; stroke:none;" d="M391 239L392 240L391 239z"/>
<path style="fill:#a9b0b6; stroke:none;" d="M410 239L411 240L410 239z"/>
<path style="fill:#696f71; stroke:none;" d="M305 240L306 241L305 240z"/>
<path style="fill:#a9b0b6; stroke:none;" d="M342 240L343 241L342 240z"/>
<path style="fill:#696f71; stroke:none;" d="M392 240L393 241L392 240z"/>
<path style="fill:#a9b0b6; stroke:none;" d="M409 240L410 241L409 240z"/>
<path style="fill:#696f71; stroke:none;" d="M307 241L308 242L307 241M327 241L328 242L327 241M343 241L344 242L343 241z"/>
<path style="fill:#a9b0b6; stroke:none;" d="M393 241L394 242L393 241M408 241L409 242L408 241z"/>
<path style="fill:#696f71; stroke:none;" d="M326 242L327 243L326 242M344 242L345 243L344 242z"/>
<path style="fill:#a9b0b6; stroke:none;" d="M407 242L408 243L407 242z"/>
<path style="fill:#696f71; stroke:none;" d="M325 243L326 244L325 243M394 243L395 244L394 243M406 243L407 244L406 243M324 244L325 245L324 244M346 244L347 245L346 244M395 244L396 245L395 244M405 244L406 245L405 244M347 245L348 246L347 245M396 245L397 246L396 245z"/>
<path style="fill:#a9b0b6; stroke:none;" d="M403 245L404 246L403 245M323 246L324 247L323 246z"/>
<path style="fill:#696f71; stroke:none;" d="M348 246L349 247L348 246M376 246L377 247L376 246M397 246L398 247L397 246z"/>
<path style="fill:#a9b0b6; stroke:none;" d="M401 246L402 247L401 246z"/>
<path style="fill:#696f71; stroke:none;" d="M402 246L403 247L402 246M322 247L323 248L322 247z"/>
<path style="fill:#a9b0b6; stroke:none;" d="M349 247L350 248L349 247z"/>
<path style="fill:#696f71; stroke:none;" d="M374 247L375 248L374 247M377 247L378 248L377 247M351 248L352 249L351 248M372 248L373 249L372 248M378 248L379 249L378 248M321 249L322 250L321 249M353 249L354 250L353 249M370 249L371 250L370 249M356.667 250.333L357.333 250.667L356.667 250.333M366.667 250.333L367.333 250.667L366.667 250.333M283.667 251.333L284.333 251.667L283.667 251.333z"/>
<path style="fill:#a9b0b6; stroke:none;" d="M285 251L285 252L289 252L285 251z"/>
<path style="fill:#696f71; stroke:none;" d="M289.667 251.333L290.333 251.667L289.667 251.333M320 251L321 252L320 251z"/>
<path style="fill:#a9b0b6; stroke:none;" d="M380 251L381 252L380 251z"/>
<path style="fill:#696f71; stroke:none;" d="M280 252L281 253L280 252M293 252L294 253L293 252M381 252L382 253L381 252M420 252L421 253L420 252z"/>
<path style="fill:#a9b0b6; stroke:none;" d="M421 252L422 253L421 252M427 252L428 253L427 252z"/>
<path style="fill:#696f71; stroke:none;" d="M428.667 252.333L429.333 252.667L428.667 252.333M277 253L278 254L277 253z"/>
<path style="fill:#a9b0b6; stroke:none;" d="M295 253L296 254L295 253z"/>
<path style="fill:#696f71; stroke:none;" d="M319.333 253.667L319.667 254.333L319.333 253.667M382 253L383 254L382 253M419 253L420 254L419 253z"/>
<path style="fill:#a9b0b6; stroke:none;" d="M431 253L432 254L431 253z"/>
<path style="fill:#696f71; stroke:none;" d="M432 253L433 254L432 253M275 254L276 255L275 254M297 254L298 255L297 254M418 254L419 255L418 254M434 254L435 255L434 254z"/>
<path style="fill:#a9b0b6; stroke:none;" d="M274 255L275 256L274 255M319 255L320 256L319 255M417 255L418 256L417 255M435 255L436 256L435 255z"/>
<path style="fill:#696f71; stroke:none;" d="M56 256L56 272L78 272L77 256L56 256M93 256C93.0737 259.572 92.5952 268.591 95.6034 270.972C98.8519 273.543 107.07 272 111 272C123.922 272 137.105 271.237 150 272.044C161.475 272.762 156.662 285.376 164.228 287.682C171.608 289.931 182.292 288 190 288L247 288C244.205 276.261 247.844 267.041 251 256L93 256M272 256L273 257L272 256M300 256L301 257L300 256M437 256L438 257L437 256z"/>
<path style="fill:#a9b0b6; stroke:none;" d="M271 257L272 258L271 257z"/>
<path style="fill:#696f71; stroke:none;" d="M301 257L302 258L301 257M414 257L415 258L414 257M438 257L439 258L438 257z"/>
<path style="fill:#a9b0b6; stroke:none;" d="M270 258L271 259L270 258z"/>
<path style="fill:#696f71; stroke:none;" d="M302 258L303 259L302 258M318 258L319 259L318 258z"/>
<path style="fill:#a9b0b6; stroke:none;" d="M413 258L414 259L413 258M439 258L440 259L439 258z"/>
<path style="fill:#696f71; stroke:none;" d="M303 259L304 260L303 259M388 259L389 260L388 259M411 259L412 260L411 259z"/>
<path style="fill:#a9b0b6; stroke:none;" d="M440 259L441 260L440 259z"/>
<path style="fill:#696f71; stroke:none;" d="M304 260L305 261L304 260M317 260L318 261L317 260M409 260L410 261L409 260M441 260L442 261L441 260z"/>
<path style="fill:#a9b0b6; stroke:none;" d="M267 261L268 262L267 261z"/>
<path style="fill:#696f71; stroke:none;" d="M316 261L317 262L316 261z"/>
<path style="fill:#a9b0b6; stroke:none;" d="M391 261L392 262L391 261z"/>
<path style="fill:#696f71; stroke:none;" d="M392 261L393 262L392 261M407 261L408 262L407 261M442 261L443 262L442 261M266 262L267 263L266 262M306 262L307 263L306 262M315 262L316 263L315 262M394.667 262.333L395.333 262.667L394.667 262.333M404 262L405 263L404 262z"/>
<path style="fill:#a9b0b6; stroke:none;" d="M405 262L406 263L405 262z"/>
<path style="fill:#696f71; stroke:none;" d="M265 263L266 264L265 263M308 263L309 264L308 263M313 263L314 264L313 263z"/>
<path style="fill:#a9b0b6; stroke:none;" d="M443 263L444 264L443 263z"/>
<path style="fill:#696f71; stroke:none;" d="M444 264L445 265L444 264M264 265L265 266L264 265z"/>
<path style="fill:#a9b0b6; stroke:none;" d="M444 265L445 266L444 265z"/>
<path style="fill:#696f71; stroke:none;" d="M263 267L264 268L263 267M445 267L446 268L445 267z"/>
<path style="fill:#a9b0b6; stroke:none;" d="M263 268L264 269L263 268z"/>
<path style="fill:#696f71; stroke:none;" d="M262 270L263 271L262 270M446 270L447 271L446 270z"/>
<path style="fill:#a9b0b6; stroke:none;" d="M262 271L263 272L262 271M446 271L447 272L446 271M273 272L274 273L273 272z"/>
<path style="fill:#696f71; stroke:none;" d="M274.667 272.333L275.333 272.667L274.667 272.333M284 272L284 273L287 273L284 272z"/>
<path style="fill:#a9b0b6; stroke:none;" d="M321 272L322 273L321 272z"/>
<path style="fill:#696f71; stroke:none;" d="M322.667 272.333L323.333 272.667L322.667 272.333M332.667 272.333L333.333 272.667L332.667 272.333z"/>
<path style="fill:#a9b0b6; stroke:none;" d="M334 272L335 273L334 272M369 272L370 273L369 272z"/>
<path style="fill:#696f71; stroke:none;" d="M370.667 272.333L371.333 272.667L370.667 272.333M380.667 272.333L381.333 272.667L380.667 272.333z"/>
<path style="fill:#a9b0b6; stroke:none;" d="M382 272L383 273L382 272M417 272L418 273L417 272z"/>
<path style="fill:#696f71; stroke:none;" d="M418.667 272.333L419.333 272.667L418.667 272.333M428.667 272.333L429.333 272.667L428.667 272.333z"/>
<path style="fill:#a9b0b6; stroke:none;" d="M430 272L431 273L430 272M269 273L270 274L269 273z"/>
<path style="fill:#696f71; stroke:none;" d="M270 273L271 274L270 273M289 273L290 274L289 273z"/>
<path style="fill:#a9b0b6; stroke:none;" d="M290 273L291 274L290 273M317 273L318 274L317 273z"/>
<path style="fill:#696f71; stroke:none;" d="M318 273L319 274L318 273M337 273L338 274L337 273z"/>
<path style="fill:#a9b0b6; stroke:none;" d="M338 273L339 274L338 273M365 273L366 274L365 273z"/>
<path style="fill:#696f71; stroke:none;" d="M366 273L367 274L366 273M385 273L386 274L385 273z"/>
<path style="fill:#a9b0b6; stroke:none;" d="M386 273L387 274L386 273M413 273L414 274L413 273z"/>
<path style="fill:#696f71; stroke:none;" d="M414 273L415 274L414 273M433 273L434 274L433 273z"/>
<path style="fill:#a9b0b6; stroke:none;" d="M434 273L435 274L434 273z"/>
<path style="fill:#696f71; stroke:none;" d="M267 274L268 275L267 274M292 274L293 275L292 274M315 274L316 275L315 274M340 274L341 275L340 274M363 274L364 275L363 274M388 274L389 275L388 274M411 274L412 275L411 274M436 274L437 275L436 274M447 274L447 279L448 279L447 274M261 275L263 278L261 275M265 275L266 276L265 275M294 275L295 276L294 275M313 275L314 276L313 275M342 275L343 276L342 275M361 275L362 276L361 275M390 275L391 276L390 275M409 275L410 276L409 275M438 275L439 276L438 275M263 276L264 277L263 276M296 276L297 277L296 276M311 276L312 277L311 276M344 276L345 277L344 276M359 276L360 277L359 276M392 276L393 277L392 276M407 276L408 277L407 276M440 276L441 277L440 276M345 277L346 278L345 277M393 277L394 278L393 277M299 278L300 279L299 278M308 278L309 279L308 278M347 278L348 279L347 278M356 278L357 279L356 278M395 278L396 279L395 278M404 278L405 279L404 278z"/>
<path style="fill:#a9b0b6; stroke:none;" d="M443 278L444 279L443 278z"/>
<path style="fill:#696f71; stroke:none;" d="M300 279L301 280L300 279M307 279L308 280L307 279M348 279L349 280L348 279M355 279L356 280L355 279M396 279L397 280L396 279M403 279L404 280L403 279M444 279L445 280L444 279z"/>
<path style="fill:#a9b0b6; stroke:none;" d="M447.333 279.667L447.667 280.333L447.333 279.667z"/>
<path style="fill:#696f71; stroke:none;" d="M301 280L302 281L301 280M306 280L307 281L306 280M349 280L350 281L349 280M354 280L355 281L354 280M397 280L398 281L397 280M402 280L403 281L402 280M445 280L446 281L445 280M302 281L303 282L302 281M305 281L306 282L305 281M350 281L351 282L350 281M353 281L354 282L353 281M398 281L399 282L398 281M401 281L402 282L401 281M446.667 281.333L447.333 281.667L446.667 281.333M303.667 282.333L304.333 282.667L303.667 282.333M351.667 282.333L352.333 282.667L351.667 282.333M399.667 282.333L400.333 282.667L399.667 282.333z"/>
<path style="fill:#a9b0b6; stroke:none;" d="M54 288L55 289L54 288z"/>
<path style="fill:#fddb52; stroke:none;" d="M51 304L149 304C148.467 300.04 147.881 291.573 144.436 289.028C140.063 285.797 128.275 288 123 288L76 288C70.5349 288 61.2973 286.225 56.3032 288.603C52.1837 290.565 51.5405 299.986 51 304z"/>
<path style="fill:#a9b0b6; stroke:none;" d="M145 288L146 289L145 288z"/>
<path style="fill:#e4403c; stroke:none;" d="M292 480L304 480C302.608 462.368 302.845 444.604 301.17 427C300.647 421.505 302.025 415.364 300.682 410C298.24 400.244 288.079 395.471 288.079 384C288.079 374.45 295.676 369.428 297.686 361C299.69 352.597 297.67 342.471 297.09 334C296.362 323.376 297.154 312.587 295.815 302C293.919 287.02 273.655 282.876 266.09 296.004C261.092 304.676 265.647 317.597 265.989 327C266.789 348.968 269.739 371.117 271.83 393C272.744 402.559 271.817 413.854 274.965 423C280.107 437.936 295.136 446.185 295.896 463C296.166 468.973 293.535 474.374 292 480M314 351C320.786 349.832 327.177 346.855 334 345.616C336.638 345.137 341.116 345.554 342.972 343.258C345.301 340.377 344 333.479 344 330C344 319.081 347.702 300.409 338.892 292.225C329.494 283.493 313.778 289.412 312.185 302C311.332 308.741 312.821 315.309 312.985 322C313.223 331.681 314 341.336 314 351M390 351C390 341.336 390.777 331.681 391.015 322C391.179 315.309 392.668 308.741 391.815 302C390.222 289.412 374.506 283.493 365.108 292.225C356.298 300.409 360 319.081 360 330C360 333.479 358.699 340.377 361.028 343.258C362.884 345.554 367.362 345.137 370 345.616C376.823 346.855 383.214 349.832 390 351M400 480L425 480C425.009 476.812 426.152 472.118 424.802 469.184C423.234 465.774 418.763 463.769 416.329 460.96C410.737 454.509 407.256 445.568 408.174 437C408.985 429.427 413.304 421.302 419.04 416.329C422.341 413.466 428.509 411.887 430.411 407.787C433.718 400.659 432.422 389.729 433.17 382C435.325 359.733 437.792 337.338 439.035 315C439.6 304.857 441.602 292.605 429 288.653C404.826 281.072 407.067 315.988 406.999 330C406.951 339.921 403.97 351.17 406.314 361C408.417 369.821 416.388 374.899 415.895 385C415.366 395.846 405.659 400.648 403.318 410C401.975 415.364 403.353 421.505 402.83 427C401.155 444.604 401.392 462.368 400 480z"/>
<path style="fill:#696f71; stroke:none;" d="M53.3333 290.667L53.6667 291.333L53.3333 290.667M146.333 290.667L146.667 291.333L146.333 290.667z"/>
<path style="fill:#a9b0b6; stroke:none;" d="M53 292L54 293L53 292M146 292L147 293L146 292z"/>
<path style="fill:#696f71; stroke:none;" d="M52.3333 294.667L52.6667 295.333L52.3333 294.667M147.333 294.667L147.667 295.333L147.333 294.667z"/>
<path style="fill:#a9b0b6; stroke:none;" d="M52 296L53 297L52 296M147 296L148 297L147 296z"/>
<path style="fill:#696f71; stroke:none;" d="M51.3333 298.667L51.6667 299.333L51.3333 298.667M148.333 298.667L148.667 299.333L148.333 298.667z"/>
<path style="fill:#a9b0b6; stroke:none;" d="M51 300L52 301L51 300M148 300L149 301L148 300z"/>
<path style="fill:#696f71; stroke:none;" d="M50.3333 302.667L50.6667 303.333L50.3333 302.667M149.333 302.667L149.667 303.333L149.333 302.667M232 304L232 320L249 320L248 304L232 304z"/>
<path style="fill:#e4403c; stroke:none;" d="M48 320L48 352C48 356.309 47.0415 362.034 49.0278 366C53.0842 374.1 64.277 379.385 72 383.247C96.0717 395.283 125.245 399.997 152 400L152 320L48 320z"/>
<path style="fill:#696f71; stroke:none;" d="M341 360L341 361L345 361L341 360z"/>
<path style="fill:#a9b0b6; stroke:none;" d="M345 360L346 361L345 360z"/>
<path style="fill:#fddb52; stroke:none;" d="M346 360.424C333.744 362.053 300.923 367.183 304.573 386C308.854 408.065 348.487 408.937 365 406.711C376.479 405.164 405.178 396.685 398.848 380C392.377 362.945 361.606 358.35 346 360.424z"/>
<path style="fill:#a9b0b6; stroke:none;" d="M358 360L359 361L358 360z"/>
<path style="fill:#696f71; stroke:none;" d="M359 360L359 361L363 361L359 360M335.667 361.333L336.333 361.667L335.667 361.333z"/>
<path style="fill:#a9b0b6; stroke:none;" d="M337 361L338 362L337 361M366 361L367 362L366 361z"/>
<path style="fill:#696f71; stroke:none;" d="M367.667 361.333L368.333 361.667L367.667 361.333M330.667 362.333L331.333 362.667L330.667 362.333M372.667 362.333L373.333 362.667L372.667 362.333M327 363L328 364L327 363z"/>
<path style="fill:#a9b0b6; stroke:none;" d="M328 363L329 364L328 363M375 363L376 364L375 363z"/>
<path style="fill:#696f71; stroke:none;" d="M376 363L377 364L376 363M324 364L325 365L324 364z"/>
<path style="fill:#a9b0b6; stroke:none;" d="M325 364L326 365L325 364M378 364L379 365L378 364z"/>
<path style="fill:#696f71; stroke:none;" d="M379 364L380 365L379 364M322 365L323 366L322 365M381 365L382 366L381 365M319 366L320 367L319 366z"/>
<path style="fill:#a9b0b6; stroke:none;" d="M320 366L321 367L320 366M383 366L384 367L383 366z"/>
<path style="fill:#696f71; stroke:none;" d="M384 366L385 367L384 366M317 367L318 368L317 367z"/>
<path style="fill:#a9b0b6; stroke:none;" d="M318 367L319 368L318 367M385 367L386 368L385 367z"/>
<path style="fill:#696f71; stroke:none;" d="M386 367L387 368L386 367z"/>
<path style="fill:#a9b0b6; stroke:none;" d="M316 368L317 369L316 368M387 368L388 369L387 368z"/>
<path style="fill:#696f71; stroke:none;" d="M314 369L315 370L314 369M389 369L390 370L389 369z"/>
<path style="fill:#a9b0b6; stroke:none;" d="M313 370L314 371L313 370M390 370L391 371L390 370z"/>
<path style="fill:#696f71; stroke:none;" d="M311 371L312 372L311 371M392 371L393 372L392 371M310 372L311 373L310 372M393 372L394 373L393 372M309 373L310 374L309 373M394 373L395 374L394 373M308 374L309 375L308 374M395 374L396 375L395 374M307 375L308 376L307 375M396 375L397 376L396 375M305 378L306 379L305 378M398 378L399 379L398 378M304.333 380.667L304.667 381.333L304.333 380.667M399.333 380.667L399.667 381.333L399.333 380.667M304.333 386.667L304.667 387.333L304.333 386.667M399.333 386.667L399.667 387.333L399.333 386.667z"/>
<path style="fill:#e4403c; stroke:none;" d="M48 388L48 448L152 448L152 416C125.883 415.997 98.2524 411.452 74 401.548C64.9362 397.846 57.0352 391.425 48 388z"/>
<path style="fill:#696f71; stroke:none;" d="M305 389L306 390L305 389M398 389L399 390L398 389M307 392L308 393L307 392M396 392L397 393L396 392M308 393L309 394L308 393M395 393L396 394L395 393M309 394L310 395L309 394M394 394L395 395L394 394M310 395L311 396L310 395M393 395L394 396L393 395M311 396L312 397L311 396M392 396L393 397L392 396z"/>
<path style="fill:#a9b0b6; stroke:none;" d="M313 397L314 398L313 397M390 397L391 398L390 397z"/>
<path style="fill:#696f71; stroke:none;" d="M314 398L315 399L314 398M389 398L390 399L389 398z"/>
<path style="fill:#a9b0b6; stroke:none;" d="M316 399L317 400L316 399M387 399L388 400L387 399z"/>
<path style="fill:#696f71; stroke:none;" d="M317 400L318 401L317 400z"/>
<path style="fill:#a9b0b6; stroke:none;" d="M318 400L319 401L318 400M385 400L386 401L385 400z"/>
<path style="fill:#696f71; stroke:none;" d="M386 400L387 401L386 400M319 401L320 402L319 401z"/>
<path style="fill:#a9b0b6; stroke:none;" d="M320 401L321 402L320 401M383 401L384 402L383 401z"/>
<path style="fill:#696f71; stroke:none;" d="M384 401L385 402L384 401M322 402L323 403L322 402M381 402L382 403L381 402M324 403L325 404L324 403z"/>
<path style="fill:#a9b0b6; stroke:none;" d="M325 403L326 404L325 403M378 403L379 404L378 403z"/>
<path style="fill:#696f71; stroke:none;" d="M379 403L380 404L379 403M327 404L328 405L327 404z"/>
<path style="fill:#a9b0b6; stroke:none;" d="M328 404L329 405L328 404M375 404L376 405L375 404z"/>
<path style="fill:#696f71; stroke:none;" d="M376 404L377 405L376 404M330.667 405.333L331.333 405.667L330.667 405.333z"/>
<path style="fill:#a9b0b6; stroke:none;" d="M332 405L333 406L332 405M371 405L372 406L371 405z"/>
<path style="fill:#696f71; stroke:none;" d="M372.667 405.333L373.333 405.667L372.667 405.333M335.667 406.333L336.333 406.667L335.667 406.333z"/>
<path style="fill:#a9b0b6; stroke:none;" d="M337 406L338 407L337 406M366 406L367 407L366 406z"/>
<path style="fill:#696f71; stroke:none;" d="M367.667 406.333L368.333 406.667L367.667 406.333M341 407L341 408L345 408L341 407z"/>
<path style="fill:#a9b0b6; stroke:none;" d="M345.667 407.333L346.333 407.667L345.667 407.333M357.667 407.333L358.333 407.667L357.667 407.333z"/>
<path style="fill:#696f71; stroke:none;" d="M359 407L359 408L363 408L359 407M469 416L470 417L469 416z"/>
<path style="fill:#a9b0b6; stroke:none;" d="M470 416L471 417L470 416z"/>
<path style="fill:#fddb52; stroke:none;" d="M471.004 416.663C463.003 418.392 465.29 428.804 457.985 431.214C453.207 432.789 449.73 428.148 446 426.086C439.277 422.368 430.073 425.297 426.442 432.015C422.235 439.799 424.894 449.983 433.015 453.95C437.15 455.97 442.302 455.57 445.567 459.228C452.632 467.145 450.841 482.751 467 479.302C475.9 477.402 482.903 466.928 478.567 458.09C476.706 454.296 471.748 451.837 472.542 447.004C473.737 439.735 482.635 440.733 486.254 435.775C492.484 427.243 479.806 414.761 471.004 416.663z"/>
<path style="fill:#a9b0b6; stroke:none;" d="M474 416L475 417L474 416z"/>
<path style="fill:#696f71; stroke:none;" d="M475.667 416.333L476.333 416.667L475.667 416.333M467 417L468 418L467 417M478 417L479 418L478 417z"/>
<path style="fill:#e4403c; stroke:none;" d="M317 418L320 480L344 480L344 440L342.972 424.742L317 418M360 480L384 480L387 418L361.028 424.742L360 440L360 480z"/>
<path style="fill:#696f71; stroke:none;" d="M466 418L467 419L466 418M480 418L481 419L480 418M465 419L466 420L465 419z"/>
<path style="fill:#a9b0b6; stroke:none;" d="M481 419L482 420L481 419z"/>
<path style="fill:#696f71; stroke:none;" d="M464 421L465 422L464 421z"/>
<path style="fill:#a9b0b6; stroke:none;" d="M484 422L485 423L484 422z"/>
<path style="fill:#696f71; stroke:none;" d="M485 423L486 424L485 423M242.667 424.333L243.333 424.667L242.667 424.333z"/>
<path style="fill:#a9b0b6; stroke:none;" d="M244 424L245 425L244 424z"/>
<path style="fill:#fddb52; stroke:none;" d="M245 424.472C233.368 426.589 236.089 436.611 230.486 443.942C223.826 452.658 195.394 458.872 213.329 475.467C220.051 481.686 231.579 480.305 237.701 473.786C241.009 470.265 242.785 463.352 248.999 464.377C258.552 465.951 254.972 481.533 267 479.276C279.095 477.007 282.935 462.489 276.146 453.093C273.35 449.224 268.468 447.756 265.728 443.896C259.425 435.02 260.614 421.631 245 424.472z"/>
<path style="fill:#a9b0b6; stroke:none;" d="M251 424L252 425L251 424z"/>
<path style="fill:#696f71; stroke:none;" d="M252.667 424.333L253.333 424.667L252.667 424.333M435.667 424.333L436.333 424.667L435.667 424.333z"/>
<path style="fill:#a9b0b6; stroke:none;" d="M437 424L438 425L437 424z"/>
<path style="fill:#696f71; stroke:none;" d="M442.667 424.333L443.333 424.667L442.667 424.333z"/>
<path style="fill:#a9b0b6; stroke:none;" d="M240 425L241 426L240 425M255 425L256 426L255 425z"/>
<path style="fill:#696f71; stroke:none;" d="M433 425L434 426L433 425M445 425L446 426L445 425M486 425L487 426L486 425M238 426L239 427L238 426M257 426L258 427L257 426M431 426L432 427L431 426M447 426L448 427L447 426M463 426L464 427L463 426z"/>
<path style="fill:#a9b0b6; stroke:none;" d="M237 427L238 428L237 427M258 427L259 428L258 427z"/>
<path style="fill:#696f71; stroke:none;" d="M448 427L449 428L448 427M236 428L237 429L236 428z"/>
<path style="fill:#a9b0b6; stroke:none;" d="M259 428L260 429L259 428z"/>
<path style="fill:#696f71; stroke:none;" d="M449 428L450 429L449 428M462 428L463 429L462 428M487 428L488 429L487 428M260 429L261 430L260 429M450 429L451 430L450 429M461 429L462 430L461 429z"/>
<path style="fill:#a9b0b6; stroke:none;" d="M487 429L488 430L487 429M235 430L236 431L235 430z"/>
<path style="fill:#696f71; stroke:none;" d="M409 430L410 431L409 430M451 430L452 431L451 430M460 430L461 431L460 430M261 431L262 432L261 431M426 431L427 432L426 431M453 431L454 432L453 431M458 431L459 432L458 431z"/>
<path style="fill:#a9b0b6; stroke:none;" d="M234 432L235 433L234 432z"/>
<path style="fill:#696f71; stroke:none;" d="M262 433L263 434L262 433M425 433L426 434L425 433M233.333 434.667L233.667 435.333L233.333 434.667z"/>
<path style="fill:#a9b0b6; stroke:none;" d="M262 434L263 435L262 434z"/>
<path style="fill:#696f71; stroke:none;" d="M408.333 434.667L408.667 435.333L408.333 434.667M487 434L488 435L487 434M424.333 435.667L424.667 436.333L424.333 435.667M263.333 436.667L263.667 437.333L263.333 436.667M486 436L487 437L486 436z"/>
<path style="fill:#a9b0b6; stroke:none;" d="M424 437L425 438L424 437z"/>
<path style="fill:#696f71; stroke:none;" d="M485 437L486 438L485 437M232.333 438.667L232.667 439.333L232.333 438.667z"/>
<path style="fill:#a9b0b6; stroke:none;" d="M263 438L264 439L263 438z"/>
<path style="fill:#696f71; stroke:none;" d="M483 438L484 439L483 438z"/>
<path style="fill:#a9b0b6; stroke:none;" d="M480 439L481 440L480 439z"/>
<path style="fill:#696f71; stroke:none;" d="M481 439L482 440L481 439z"/>
<path style="fill:#a9b0b6; stroke:none;" d="M232 440L233 441L232 440z"/>
<path style="fill:#696f71; stroke:none;" d="M477 440L478 441L477 440M475 441L476 442L475 441M264 442L265 443L264 442z"/>
<path style="fill:#a9b0b6; stroke:none;" d="M424 442L425 443L424 442z"/>
<path style="fill:#696f71; stroke:none;" d="M474 442L475 443L474 442M231 443L232 444L231 443M424.333 443.667L424.667 444.333L424.333 443.667M473 443L474 444L473 443M265 444L266 445L265 444M408.333 444.667L408.667 445.333L408.333 444.667M266 445L267 446L266 445M472 445L473 446L472 445M228 446L229 447L228 446M267 446L268 447L267 446M425 446L426 447L425 446M226 447L227 448L226 447z"/>
<path style="fill:#a9b0b6; stroke:none;" d="M227 447L228 448L227 447z"/>
<path style="fill:#696f71; stroke:none;" d="M269 447L270 448L269 447M222 448L223 449L222 448z"/>
<path style="fill:#a9b0b6; stroke:none;" d="M223 448L224 449L223 448z"/>
<path style="fill:#696f71; stroke:none;" d="M271 448L272 449L271 448M426 448L427 449L426 448M220 449L221 450L220 449z"/>
<path style="fill:#a9b0b6; stroke:none;" d="M272 449L273 450L272 449z"/>
<path style="fill:#696f71; stroke:none;" d="M409 449L410 450L409 449z"/>
<path style="fill:#a9b0b6; stroke:none;" d="M427 449L428 450L427 449M218 450L219 451L218 450z"/>
<path style="fill:#696f71; stroke:none;" d="M472 450L473 451L472 450M216 451L217 452L216 451z"/>
<path style="fill:#a9b0b6; stroke:none;" d="M215 452L216 453L215 452M430 452L431 453L430 452z"/>
<path style="fill:#696f71; stroke:none;" d="M473 452L474 453L473 452z"/>
<path style="fill:#a9b0b6; stroke:none;" d="M276 453L277 454L276 453z"/>
<path style="fill:#696f71; stroke:none;" d="M431 453L432 454L431 453M474 453L475 454L474 453M277 454L278 455L277 454M433 454L434 455L433 454M475 454L476 455L475 454M435.667 455.333L436.333 455.667L435.667 455.333z"/>
<path style="fill:#a9b0b6; stroke:none;" d="M437 455L438 456L437 455z"/>
<path style="fill:#696f71; stroke:none;" d="M477 455L478 456L477 455M278 456L279 457L278 456M442 456L443 457L442 456M478 456L479 457L478 456z"/>
<path style="fill:#a9b0b6; stroke:none;" d="M210 457L211 458L210 457M278 457L279 458L278 457z"/>
<path style="fill:#696f71; stroke:none;" d="M444 457L445 458L444 457M209 458L210 459L209 458M445 458L446 459L445 458M279.333 459.667L279.667 460.333L279.333 459.667M446 459L447 460L446 459M479 459L480 460L479 459z"/>
<path style="fill:#a9b0b6; stroke:none;" d="M479 460L480 461L479 460z"/>
<path style="fill:#696f71; stroke:none;" d="M208 461L209 462L208 461z"/>
<path style="fill:#a9b0b6; stroke:none;" d="M279 461L280 462L279 461z"/>
<path style="fill:#696f71; stroke:none;" d="M447 461L448 462L447 461M50.3333 464.667L50.6667 465.333L50.3333 464.667z"/>
<path style="fill:#fddb52; stroke:none;" d="M51 464C51.5405 468.014 52.1837 477.435 56.3032 479.397C61.2973 481.775 70.5349 480 76 480L123 480C128.275 480 140.063 482.203 144.436 478.972C147.881 476.427 148.467 467.96 149 464L51 464z"/>
<path style="fill:#696f71; stroke:none;" d="M149.333 464.667L149.667 465.333L149.333 464.667z"/>
<path style="fill:#a9b0b6; stroke:none;" d="M244 464L245 465L244 464z"/>
<path style="fill:#696f71; stroke:none;" d="M245 464L246 465L245 464M250 464L251 465L250 464z"/>
<path style="fill:#a9b0b6; stroke:none;" d="M251 464L252 465L251 464z"/>
<path style="fill:#696f71; stroke:none;" d="M243 465L244 466L243 465M252 465L253 466L252 465z"/>
<path style="fill:#a9b0b6; stroke:none;" d="M208 466L209 467L208 466M279 466L280 467L279 466M448 466L449 467L448 466M479 466L480 467L479 466M51 467L52 468L51 467M148 467L149 468L148 467z"/>
<path style="fill:#696f71; stroke:none;" d="M208.333 467.667L208.667 468.333L208.333 467.667M241 467L242 468L241 467M254 467L255 468L254 467M279.333 467.667L279.667 468.333L279.333 467.667M448.333 467.667L448.667 468.333L448.333 467.667M479 467L480 468L479 467M51.3333 468.667L51.6667 469.333L51.3333 468.667M148.333 468.667L148.667 469.333L148.333 468.667z"/>
<path style="fill:#a9b0b6; stroke:none;" d="M240 468L241 469L240 468M255 468L256 469L255 468z"/>
<path style="fill:#696f71; stroke:none;" d="M240 469L241 470L240 469M255 469L256 470L255 469M209 470L210 471L209 470M278 470L279 471L278 470M449 470L450 471L449 470M478 470L479 471L478 470z"/>
<path style="fill:#a9b0b6; stroke:none;" d="M52 471L53 472L52 471M147 471L148 472L147 471z"/>
<path style="fill:#696f71; stroke:none;" d="M52.3333 472.667L52.6667 473.333L52.3333 472.667M147.333 472.667L147.667 473.333L147.333 472.667M210 472L211 473L210 472M239 472L240 473L239 472M277 472L278 473L277 472M450 472L451 473L450 472M477 472L478 473L477 472z"/>
<path style="fill:#a9b0b6; stroke:none;" d="M211 473L212 474L211 473M238 473L239 474L238 473M256 473L257 474L256 473M276 473L277 474L276 473M451 473L452 474L451 473M476 473L477 474L476 473z"/>
<path style="fill:#696f71; stroke:none;" d="M237 474L238 475L237 474M256 474L257 475L256 474z"/>
<path style="fill:#a9b0b6; stroke:none;" d="M53 475L54 476L53 475M146 475L147 476L146 475z"/>
<path style="fill:#696f71; stroke:none;" d="M236 475L237 476L236 475M53.3333 476.667L53.6667 477.333L53.3333 476.667M146.333 476.667L146.667 477.333L146.333 476.667z"/>
<path style="fill:#a9b0b6; stroke:none;" d="M214 476L215 477L214 476z"/>
<path style="fill:#696f71; stroke:none;" d="M234 476L235 477L234 476M257 476L258 477L257 476z"/>
<path style="fill:#a9b0b6; stroke:none;" d="M273 476L274 477L273 476M454 476L455 477L454 476M473 476L474 477L473 476z"/>
<path style="fill:#696f71; stroke:none;" d="M215 477L216 478L215 477M232 477L233 478L232 477M258 477L259 478L258 477M272 477L273 478L272 477M455 477L456 478L455 477M472 477L473 478L472 477M217 478L218 479L217 478z"/>
<path style="fill:#a9b0b6; stroke:none;" d="M229 478L230 479L229 478z"/>
<path style="fill:#696f71; stroke:none;" d="M230 478L231 479L230 478M270 478L271 479L270 478M457 478L458 479L457 478M470 478L471 479L470 478z"/>
<path style="fill:#a9b0b6; stroke:none;" d="M54 479L55 480L54 479M145 479L146 480L145 479z"/>
<path style="fill:#696f71; stroke:none;" d="M219.667 479.333L220.333 479.667L219.667 479.333z"/>
<path style="fill:#a9b0b6; stroke:none;" d="M221 479L222 480L221 479M226 479L227 480L226 479z"/>
<path style="fill:#696f71; stroke:none;" d="M227 479L228 480L227 479M261 479L262 480L261 479z"/>
<path style="fill:#a9b0b6; stroke:none;" d="M262 479L263 480L262 479M266 479L267 480L266 479z"/>
<path style="fill:#696f71; stroke:none;" d="M267.667 479.333L268.333 479.667L267.667 479.333M459.667 479.333L460.333 479.667L459.667 479.333z"/>
<path style="fill:#a9b0b6; stroke:none;" d="M461 479L462 480L461 479M466 479L467 480L466 479z"/>
<path style="fill:#696f71; stroke:none;" d="M467.667 479.333L468.333 479.667L467.667 479.333z"/>
</svg>
